<?xml version="1.0" standalone="no"?>
<!DOCTYPE svg PUBLIC "-//W3C//DTD SVG 20010904//EN"
 "http://www.w3.org/TR/2001/REC-SVG-20010904/DTD/svg10.dtd">
<svg version="1.0" xmlns="http://www.w3.org/2000/svg"
 width="1280.000000pt" height="905.000000pt" viewBox="0 0 1280.000000 905.000000"
 preserveAspectRatio="xMidYMid meet">
<g transform="translate(0.000000,905.000000) scale(0.100000,-0.100000)"
fill="#000000" stroke="none">
<path d="M6892 8542 c13 -16 59 -72 103 -124 254 -303 445 -647 571 -1026 24
-73 44 -140 44 -148 0 -22 -21 -18 -189 40 -1082 372 -2333 376 -3426 11 -637
-212 -1168 -529 -1586 -945 -261 -260 -408 -460 -553 -750 -121 -243 -206
-521 -231 -755 -8 -74 -14 -95 -25 -95 -13 0 -142 172 -229 304 -199 302 -280
536 -268 771 10 197 76 337 229 488 l99 98 -38 -6 c-184 -31 -330 -121 -427
-262 -120 -177 -140 -409 -54 -653 62 -175 111 -256 459 -761 l242 -353 18
-117 c92 -602 425 -1167 953 -1619 l95 -81 35 -107 c19 -59 107 -341 196 -627
89 -286 165 -523 169 -527 7 -8 921 -31 928 -24 2 2 -6 113 -17 247 -24 292
-25 339 -7 339 8 0 40 -9 73 -20 188 -66 554 -150 814 -188 739 -110 1498 -71
2199 114 74 19 138 31 142 27 4 -4 18 -151 30 -327 19 -260 26 -319 38 -324
19 -7 973 107 984 117 6 6 227 1112 227 1136 0 2 44 38 98 78 53 41 130 101
170 134 49 40 100 70 155 92 501 202 891 648 1020 1166 25 99 40 186 52 298 8
68 -11 57 215 135 l145 50 175 7 c204 8 208 10 239 110 32 104 45 214 45 400
0 243 -31 451 -84 554 -34 67 -30 66 -269 63 -197 -2 -232 0 -399 26 -101 16
-188 34 -193 39 -6 6 -26 84 -45 174 -135 652 -262 937 -503 1129 -75 60 -137
93 -325 171 -161 68 -230 107 -296 169 -114 108 -153 260 -116 452 61 312 267
588 559 743 l80 43 -41 21 c-174 89 -460 105 -659 37 -210 -71 -400 -229 -507
-419 -26 -48 -52 -87 -55 -87 -4 0 -247 133 -540 295 -293 162 -535 295 -538
295 -2 0 6 -13 19 -28z"/>
</g>
</svg>
